<?xml version="1.0" encoding="utf-8"?>
<!-- Generator: Adobe Illustrator 19.1.0, SVG Export Plug-In . SVG Version: 6.00 Build 0)  -->
<svg version="1.1" id="Layer_1" xmlns="http://www.w3.org/2000/svg" xmlns:xlink="http://www.w3.org/1999/xlink" x="0px" y="0px"
	 viewBox="0 0 28.8 28.7" style="enable-background:new 0 0 28.8 28.7;" xml:space="preserve">
<style type="text/css">
	.st0{fill:none;stroke:#010202;stroke-linecap:round;stroke-linejoin:round;stroke-miterlimit:10;}
</style>
<g>
	<circle class="st0" cx="8.5" cy="20.6" r="5"/>
	<path class="st0" d="M13.5,9.1v-4c-0.8-0.8-2.2-0.8-3,0L9,9.1l-1.5,1.5l-3,7"/>
	<circle class="st0" cx="21.5" cy="20.6" r="5"/>
	<path class="st0" d="M16.5,9.1V5.1c0.8-0.8,2.2-0.8,3,0L21,9.1l1.5,1.5l3,7"/>
	<path class="st0" d="M11,13.1c0-1.1,1.8-2,4-2s4,0.9,4,2"/>
	<line class="st0" x1="13.5" y1="20.6" x2="13.5" y2="11.2"/>
	<line class="st0" x1="16.5" y1="20.6" x2="16.5" y2="11.2"/>
	<path class="st0" d="M5.5,20.6c0-1.7,1.3-3,3-3"/>
	<path class="st0" d="M18.5,20.6c0-1.7,1.3-3,3-3"/>
</g>
</svg>
