<svg id="Layer_1" data-name="Layer 1" xmlns="http://www.w3.org/2000/svg" viewBox="0 0 280 57.93"><defs><style>.cls-1{fill:#fff;}</style></defs><title>tumblr</title><path class="cls-1" d="M382.4,130.5a7.9,7.9,0,1,0,8.1,7.9,8,8,0,0,0-8.1-7.9ZM338,135V88.5h-4.9s-8.1,2.9-14,3.6v8.8h3.7c1.2,0,1.7.5,1.7,1.6V135a1.68,1.68,0,0,1-1.55,1.8h-.25c-.9.1-3,.2-3,.2v8.8h23.1V137s-2.1-.1-3-.2A1.63,1.63,0,0,1,338,135Zm46.6-23.1c-.5-9.8-13.7-10.3-20.7-3.6l-1.3-3.8h-16v9H350c1.2,0,1.6.5,1.6,1.6V135a1.68,1.68,0,0,1-1.55,1.8h-.25c-.9.1-2.8.2-2.8.2v8.8h22.6V137s-1.9-.1-2.8-.2a1.73,1.73,0,0,1-1.8-1.66s0-.1,0-.14V121.5c0-2.5.6-6.8,5-7.8.6,4.2,4.6,5.5,6.6,5.5C381.8,119.2,384.6,115.4,384.6,111.9ZM299.5,104a16.66,16.66,0,0,0-9.7,3.7V88.5H285a83.71,83.71,0,0,1-14.1,3.6l-.2,8.8h3.9c1.2,0,1.7.5,1.7,1.6v43.4h11.1l1.6-3.6a17.63,17.63,0,0,0,13.5,4c10.2-1.2,15.6-9.3,15.6-21.6C318.1,118.3,316.1,103.2,299.5,104Zm-2.1,32.3a7.77,7.77,0,0,1-7.6-4.1V119.7c0-2.9,2.7-5.4,6.8-5.6s7.9,2.7,7.9,10.7c0,10.9-4.8,11.3-7.1,11.5Zm-29.8-1.2V122.6c0-4.5-.1-9.1-3-12.9-2.7-3.5-7.2-6-14-5.7-4.5.2-9.4,2.3-12,5.9l-.4.5-.3-.3c-2.7-4-7.1-6.5-14-6.2-4.5.2-9.4,2.3-12,5.9l-.4-5.4H194.7v9l3.9.1c1.2,0,1.7.5,1.7,1.6V135a1.68,1.68,0,0,1-1.55,1.8h-.25c-.9.1-2.8.2-2.8.2v8.8h22.6V137s-1.8-.1-2.8-.2a1.73,1.73,0,0,1-1.8-1.66s0-.1,0-.14V121.5c0-2.2,1.9-6.9,7.8-6.9,4.8,0,5.7,2.9,5.7,6.3V135a1.68,1.68,0,0,1-1.55,1.8h-.25c-.9.1-2.8.2-2.8.2v8.8h22.6V137s-1.8-.1-2.8-.2a1.73,1.73,0,0,1-1.8-1.66s0-.1,0-.14V121.5c0-2.2,1.7-6.9,7.6-6.9,4.8,0,5.9,2.9,5.9,6.3V135a1.68,1.68,0,0,1-1.55,1.8h-.25c-.9.1-2.8.2-2.8.2v8.8h22.6V137s-1.8-.1-2.8-.2a1.58,1.58,0,0,1-1.7-1.7Zm-80.2,0V104.5H168.5v9h3.6c1.2,0,1.7.5,1.7,1.6v14c0,1.4-1,6.5-7.8,6.6-4.7.1-5.7-2.7-5.7-6.3V104.5H146.5v25.6c0,6.5,3,16.7,16.8,16.3,4.5-.1,9.7-2.4,12.4-5.8l.1,5.2h15.4V137l-2.2-.2c-1,.1-1.6-.5-1.6-1.7Zm-51.3,1.1c-4.6.1-5.5-3.2-5.5-5.5V114.1h10.7v-9.6H130.6V90.3h-8.4a.42.42,0,0,0-.4.4c-.5,4.4-2.6,12.1-11.3,15.1V114h6.6v17.4c0,6.3,3.9,15.2,16.4,15,4.2-.1,8.9-1.8,9.9-3.3l-2.8-8a11.44,11.44,0,0,1-4.5,1.1Z" transform="translate(-110.5 -88.5)"/></svg>